<?xml version="1.0" encoding="UTF-8"?>
<svg xmlns="http://www.w3.org/2000/svg" version="1.1" viewBox="0 0 1920 1080">
  <defs>
    <style>
      .cls-1 {
        font-family: BaskOldFace, 'Baskerville Old Face';
        font-size: 200.52px;
      }

      .cls-2 {
        fill: #0e0019;
      }
    </style>
  </defs>
  <!-- Generator: Adobe Illustrator 28.6.0, SVG Export Plug-In . SVG Version: 1.2.0 Build 709)  -->
  <g>
    <g id="Capa_1">
      <text/>
      <g>
        <path class="cls-2" d="M618.28,190.15c41.68,90.48,53.55,194.15,74.86,290.63-8,11.66-16.01,23.31-24.01,34.97-19.44-91.98-29.19-188.33-57.11-278.29-14.97,54.35-41.57,104.22-67.65,153.9-8.17,16.54-11.45,23.57-10.11,20.56-13.84,28.94-4.97,58.24,25.37,70.79-.72,2.42-1.08,3.64-1.79,6.08-.24-.07-3.54-1.5-9.74-3.98-16.89-6.76-34.39-13.75-51.71-19.74-20.36-7.03-41.4-12.94-61.98-19.76.78-1.73,1.18-2.59,1.98-4.31,37.48,7.79,63.83-23.04,80.69-52.27,31.38-54.54,64.43-109.24,77.61-171.48-10.11-14.67-27.21-21-43.58-25.57.05-1.87.06-2.81.06-4.69,15.73,1.47,31.39,2.28,47.18,2.62,7.96.21,11.95.32,19.91.53ZM726.53,384.54c42.1-62.5,81.1-126.55,114.02-194.39,8.4,0,12.6,0,21,0,5.13,113.78,2.58,227.96,3,341.82-5.76-.17-8.64-.28-14.4-.52-13.6-.5-27.21-.05-40.81.34-9.84.35-14.77.47-24.65.61.33-3.23.49-4.84.81-8.02,37.44-8.53,47.85-52.7,50.03-85.55-.05.76.31-7.98,1.07-24.95,1.76-58.57,3.69-117.16,3.27-175.77-37.68,73.02-81.33,142.62-126.15,211.41-20.27-86.82-35.36-177.96-73.08-259.37,9.27,0,13.91,0,23.18,0,29,61.95,45.09,128.57,62.7,194.39ZM891.89,532.49c-3.21-114.1-5.11-228.31-10.43-342.34,3.71,0,5.56,0,9.27,0,18.68-.1,37.31-1.6,55.91-3.15,0,1.89,0,2.84,0,4.72-11.38,1.77-21.95,7.63-28.87,16.78-7.12,9.41-10.73,21.28-10.59,33.15.22,9.57.44,19.15.68,28.72,2.66,50.13,5.48,100.25,8.29,150.38,1.81,25.79,4.66,53.28,15.81,76.62,7.7,16.1,23.21,28.63,41.4,30.41.2,3.23.3,4.86.5,8.14-27.3-1.18-54.64-3.13-81.97-3.43Z"/>
        <path class="cls-2" d="M1042.65,190.14c.38,110.17,31.5,219.82,49.34,327.89-25.54,4.95-51.06,10.01-76.64,14.76-.31-3.24-.47-4.84-.78-8.03,40.29-17.45,36.69-75.77,31.12-110.83-8.19-52.13-16.68-104.23-21.91-156.76-2.05-26.31-10.72-56.34-38.39-65.45,0-1.88-.01-2.83,0-4.71,19.08,1.62,38.13,2.65,57.27,3.14ZM1119.06,513.6c-19.99-106.85-54.6-214.04-56.24-323.46,15.55-1.04,31.09-2.09,46.64-3.14,20.37-.51,40.84,6.77,55.77,20.59,14.64,13.55,24.47,32.68,29.84,51.6,6.71,23.63,1.11,46.2-21.26,58.86,43,6.03,83.19,29.41,101.05,68.46,9.85,21.55,10,41.35,1.09,63.2-11.62,28.48-45.89,43.84-73.68,51.05-15.12,3.92-31.16,6.18-47.08,8.01-12.06,1.39-24.16,2.79-36.14,4.83ZM1091.46,261.26c3.17,18.32,6.9,36.47,10.97,54.61,9.27-.29,13.91-.44,23.2-.78,13.92-.56,31.36-3.73,40.35-15.7,8.93-11.9,6.81-26.05,4.11-39.32-3-14.75-11.05-29.61-22.84-39.28-10.55-8.65-24.09-13.46-37.87-13.42-7.82.02-16.47,2.16-18.56,5.46-5.97,9.39-1.54,32.43.64,48.42ZM1138.09,334.68c-10.29.53-20.59,1.01-30.89,1.45,4.41,18.16,8.88,36.32,13.52,54.42,7.15,25.94,14.17,61.54,35.29,80.47,12.86,6.42,27.09,5.21,39.9,2.55,19.67-4.08,43.81-14.02,51.66-35.19,5.83-15.72,4.34-34.42-2.8-49.8-5.8-12.48-14.23-24.27-25.02-33.17-9.75-8.04-21.08-14.77-33.17-17.95-15.47-4.07-32.4-3.32-48.48-2.79ZM1215.81,307.39c6.9-15.24,5.69-33.09.73-48.56-4.36-13.58-10.42-27.22-18.4-39.24-6.27-9.46-13.91-19.13-24.24-24.48,15.92,3.34,32.25,10.19,43.47,21.85,10.03,10.42,19.52,22.23,23.2,35.97,2.8,10.45,4.14,22.05-.82,32.87-4.64,10.12-13.34,17.93-23.94,21.59ZM1300.05,458.43c13.76-24.1,13.58-50.79.49-74.95-14.35-26.5-38.51-47.67-64.58-62.61,35.68,7.18,77.74,23.05,95.27,54.78,8.12,14.7,9.34,27.22,4.02,43.28-5.56,16.76-20.47,29.32-35.2,39.51Z"/>
      </g>
      <text class="cls-1" transform="translate(309.93 850.19) scale(1.04 1)"><tspan x="0" y="0">&amp;ASOCIADOS</tspan></text>
    </g>
  </g>
</svg>