<?xml version="1.0" encoding="UTF-8"?>
<svg xmlns="http://www.w3.org/2000/svg" version="1.1" viewBox="0 0 1920 1080">
  <defs>
    <style>
      .cls-1, .cls-2 {
        fill: #fff;
      }

      .cls-3, .cls-2 {
        isolation: isolate;
      }

      .cls-2 {
        font-family: BaskOldFace, 'Baskerville Old Face';
        font-size: 200.5px;
      }
    </style>
  </defs>
  <!-- Generator: Adobe Illustrator 28.6.0, SVG Export Plug-In . SVG Version: 1.2.0 Build 709)  -->
  <g>
    <g id="Capa_1">
      <g id="Capa_1-2" data-name="Capa_1">
        <g>
          <path class="cls-1" d="M618.3,190.1c41.7,90.5,53.5,194.1,74.9,290.6-8,11.7-16,23.3-24,35-19.4-92-29.2-188.3-57.1-278.3-15,54.4-41.6,104.2-67.7,153.9-8.2,16.5-11.5,23.6-10.1,20.6-13.8,28.9-5,58.2,25.4,70.8-.7,2.4-1.1,3.6-1.8,6.1-.2,0-3.5-1.5-9.7-4-16.9-6.8-34.4-13.8-51.7-19.7-20.4-7-41.4-12.9-62-19.8.8-1.7,1.2-2.6,2-4.3,37.5,7.8,63.8-23,80.7-52.3,31.4-54.5,64.4-109.2,77.6-171.5-10.1-14.7-27.2-21-43.6-25.6,0-1.9,0-2.8,0-4.7,15.7,1.5,31.4,2.3,47.2,2.6,8,.2,12,.3,19.9.5h0ZM726.5,384.5c42.1-62.5,81.1-126.6,114-194.4h21c5.1,113.8,2.6,228,3,341.8-5.8-.2-8.6-.3-14.4-.5-13.6-.5-27.2,0-40.8.3-9.8.3-14.8.5-24.7.6.3-3.2.5-4.8.8-8,37.4-8.5,47.8-52.7,50-85.5,0,.8.3-8,1.1-25,1.8-58.6,3.7-117.2,3.3-175.8-37.7,73-81.3,142.6-126.2,211.4-20.3-86.8-35.4-178-73.1-259.4h23.2c29,61.9,45.1,128.6,62.7,194.4h0ZM891.9,532.5c-3.2-114.1-5.1-228.3-10.4-342.3h9.3c18.7-.1,37.3-1.6,55.9-3.1v4.7c-11.4,1.8-22,7.6-28.9,16.8-7.1,9.4-10.7,21.3-10.6,33.1.2,9.6.4,19.1.7,28.7,2.7,50.1,5.5,100.2,8.3,150.4,1.8,25.8,4.7,53.3,15.8,76.6,7.7,16.1,23.2,28.6,41.4,30.4.2,3.2.3,4.9.5,8.1-27.3-1.2-54.6-3.1-82-3.4Z"/>
          <path class="cls-1" d="M1042.7,190.1c.4,110.2,31.5,219.8,49.3,327.9-25.5,5-51.1,10-76.6,14.8-.3-3.2-.5-4.8-.8-8,40.3-17.5,36.7-75.8,31.1-110.8-8.2-52.1-16.7-104.2-21.9-156.8-2-26.3-10.7-56.3-38.4-65.4,0-1.9,0-2.8,0-4.7,19.1,1.6,38.1,2.6,57.3,3.1h0ZM1119.1,513.6c-20-106.9-54.6-214-56.2-323.5,15.6-1,31.1-2.1,46.6-3.1,20.4-.5,40.8,6.8,55.8,20.6,14.6,13.6,24.5,32.7,29.8,51.6,6.7,23.6,1.1,46.2-21.3,58.9,43,6,83.2,29.4,101.1,68.5,9.8,21.5,10,41.4,1.1,63.2-11.6,28.5-45.9,43.8-73.7,51-15.1,3.9-31.2,6.2-47.1,8-12.1,1.4-24.2,2.8-36.1,4.8h0ZM1091.5,261.3c3.2,18.3,6.9,36.5,11,54.6,9.3-.3,13.9-.4,23.2-.8,13.9-.6,31.4-3.7,40.3-15.7,8.9-11.9,6.8-26,4.1-39.3-3-14.8-11.1-29.6-22.8-39.3-10.6-8.6-24.1-13.5-37.9-13.4-7.8,0-16.5,2.2-18.6,5.5-6,9.4-1.5,32.4.6,48.4h0ZM1138.1,334.7c-10.3.5-20.6,1-30.9,1.5,4.4,18.2,8.9,36.3,13.5,54.4,7.2,25.9,14.2,61.5,35.3,80.5,12.9,6.4,27.1,5.2,39.9,2.5,19.7-4.1,43.8-14,51.7-35.2,5.8-15.7,4.3-34.4-2.8-49.8-5.8-12.5-14.2-24.3-25-33.2-9.8-8-21.1-14.8-33.2-18-15.5-4.1-32.4-3.3-48.5-2.8h0ZM1215.8,307.4c6.9-15.2,5.7-33.1.7-48.6-4.4-13.6-10.4-27.2-18.4-39.2-6.3-9.5-13.9-19.1-24.2-24.5,15.9,3.3,32.2,10.2,43.5,21.9,10,10.4,19.5,22.2,23.2,36,2.8,10.5,4.1,22-.8,32.9-4.6,10.1-13.3,17.9-23.9,21.6ZM1300.1,458.4c13.8-24.1,13.6-50.8.5-75-14.3-26.5-38.5-47.7-64.6-62.6,35.7,7.2,77.7,23,95.3,54.8,8.1,14.7,9.3,27.2,4,43.3-5.6,16.8-20.5,29.3-35.2,39.5h0Z"/>
        </g>
        <g class="cls-3">
          <text class="cls-2" transform="translate(309.9 850.2) scale(1 1)"><tspan x="0" y="0">&amp;ASOCIADOS</tspan></text>
        </g>
      </g>
    </g>
  </g>
</svg>